<svg xmlns="http://www.w3.org/2000/svg" viewBox="125 175 325 200"> <svg xmlns="http://www.w3.org/2000/svg" xmlns:xlink="http://www.w3.org/1999/xlink" version="1.1" id="Layer_1" x="204.517" y="195" viewBox="24.51000213623047 64.23997497558594 150.489990234375 71.02003479003906" xml:space="preserve" height="78.32383042781352" width="165.96661376953125" preserveAspectRatio="xMinYMin" enable-background="new 0 0 200 200" style="overflow: visible;"><path class="st0" d="M135.07,135.26h-19.58L74.95,75.96H63.18c-3.22,0-5.82-2.61-5.82-5.82s2.61-5.82,5.82-5.82H81.1l40.54,59.29    h13.44c3.22,0,5.82,2.61,5.82,5.82C140.9,132.65,138.29,135.26,135.07,135.26z" style="fill: #a37036; fill-opacity: 1;"></path><path class="st1" d="M80.4,135.26H64.19c-3.22,0-5.82-2.61-5.82-5.82c0-3.22,2.61-5.82,5.82-5.82h11.47l40.54-39.53h33.08    c3.22,0,5.82,2.61,5.82,5.82s-2.61,5.82-5.82,5.82h-28.34L80.4,135.26z" style="fill: #a37036; fill-opacity: 1;"></path><path class="st2" d="M149.28,115.49h-32.06L76.68,95.73H51.2c-3.22,0-5.82-2.61-5.82-5.82s2.61-5.82,5.82-5.82h28.17l40.54,19.76    h29.37c3.22,0,5.82,2.61,5.82,5.82S152.49,115.49,149.28,115.49z" style="fill: #b88a49; fill-opacity: 1;"></path><linearGradient id="SVGID_1_" gradientUnits="userSpaceOnUse" x1="151.2017" y1="76.0789" x2="151.2017" y2="124.4116" style=""><stop offset="0" style="stop-color: #313233;"></stop><stop offset="1" style="stop-color: #5C5E5F;"></stop></linearGradient><path class="st3" d="M139.35,135.26h-6.12c-3.22,0-5.82-2.6-5.82-5.8c0-3.2,2.61-5.8,5.82-5.8h6.12    c13.24,0,24.01-10.72,24.01-23.91s-10.77-23.91-24.01-23.91h-6.12c-3.22,0-5.82-2.6-5.82-5.8s2.61-5.8,5.82-5.8h6.12    C159,64.24,175,80.17,175,99.75C175,119.33,159,135.26,139.35,135.26z" style="fill: #a37036; fill-opacity: 1;"></path><linearGradient id="SVGID_2_" gradientUnits="userSpaceOnUse" x1="6340.271" y1="-3978.6819" x2="6340.271" y2="-3925.9653" gradientTransform="matrix(-1 0 0 -1 6388.5718 -3854.5801)" style=""><stop offset="0" style="stop-color: #252526;"></stop><stop offset="1" style="stop-color: #5C5E5F;"></stop></linearGradient><path class="st4" d="M60.16,64.24h6.12c3.22,0,5.82,2.6,5.82,5.8s-2.61,5.8-5.82,5.8h-6.12c-13.24,0-24.01,10.72-24.01,23.91    s10.77,23.91,24.01,23.91h6.12c3.22,0,5.82,2.6,5.82,5.8c0,3.2-2.61,5.8-5.82,5.8h-6.12c-19.66,0-35.65-15.93-35.65-35.51    C24.5,80.17,40.5,64.24,60.16,64.24z" style="fill: #a37036; fill-opacity: 1;"></path><path class="st5" d="M80.4,115.49H51.2c-3.22,0-5.82-2.61-5.82-5.82s2.61-5.82,5.82-5.82h24.46l40.54-39.53h17.88    c3.22,0,5.82,2.61,5.82,5.82s-2.61,5.82-5.82,5.82h-13.14L80.4,115.49z" style="fill: #a37036; fill-opacity: 1;"></path></svg> <svg y="340" viewBox="1.6700000762939453 4.400000095367432 214.4300079345703 17.89000129699707" x="180.28497314453125" height="17.89000129699707" width="214.4300079345703" style="overflow: visible;"><g fill="#545454" fill-opacity="1" style=""><path d="M3.35 18.41L1.67 18.41L1.67 4.59L6.34 4.59Q7.97 4.59 9.00 5.17Q10.04 5.76 10.54 6.75Q11.04 7.74 11.04 8.96L11.04 8.96Q11.04 10.18 10.54 11.18Q10.05 12.18 9.01 12.77Q7.98 13.36 6.37 13.36L6.37 13.36L3.02 13.36L3.02 11.88L6.32 11.88Q7.43 11.88 8.10 11.49Q8.78 11.11 9.09 10.45Q9.39 9.79 9.39 8.96L9.39 8.96Q9.39 8.13 9.09 7.48Q8.78 6.82 8.10 6.45Q7.42 6.07 6.29 6.07L6.29 6.07L3.35 6.07L3.35 18.41ZM20.86 10.36L20.86 10.36L19.43 10.77Q19.30 10.41 19.04 10.07Q18.78 9.73 18.33 9.51Q17.89 9.28 17.19 9.28L17.19 9.28Q16.24 9.28 15.61 9.72Q14.98 10.15 14.98 10.82L14.98 10.82Q14.98 11.42 15.41 11.76Q15.84 12.10 16.76 12.33L16.76 12.33L18.30 12.71Q19.69 13.05 20.37 13.74Q21.05 14.43 21.05 15.52L21.05 15.52Q21.05 16.41 20.54 17.11Q20.03 17.81 19.12 18.22Q18.21 18.62 17.00 18.62L17.00 18.62Q15.42 18.62 14.38 17.93Q13.34 17.25 13.06 15.92L13.06 15.92L14.57 15.55Q14.79 16.38 15.39 16.80Q16.00 17.22 16.98 17.22L16.98 17.22Q18.09 17.22 18.75 16.74Q19.40 16.27 19.40 15.60L19.40 15.60Q19.40 15.06 19.03 14.69Q18.65 14.32 17.87 14.14L17.87 14.14L16.14 13.74Q14.72 13.40 14.05 12.69Q13.39 11.98 13.39 10.90L13.39 10.90Q13.39 10.03 13.88 9.35Q14.38 8.68 15.24 8.29Q16.10 7.91 17.19 7.91L17.19 7.91Q18.73 7.91 19.61 8.58Q20.49 9.26 20.86 10.36ZM27.80 18.62L27.80 18.62Q26.30 18.62 25.22 17.96Q24.13 17.29 23.55 16.10Q22.97 14.90 22.97 13.31L22.97 13.31Q22.97 11.71 23.55 10.50Q24.13 9.28 25.18 8.59Q26.23 7.91 27.64 7.91L27.64 7.91Q28.45 7.91 29.24 8.18Q30.02 8.45 30.67 9.05Q31.32 9.66 31.70 10.65Q32.09 11.64 32.09 13.09L32.09 13.09L32.09 13.76L24.10 13.76L24.10 12.39L30.47 12.39Q30.47 11.51 30.12 10.82Q29.78 10.13 29.14 9.74Q28.50 9.34 27.64 9.34L27.64 9.34Q26.69 9.34 25.99 9.81Q25.30 10.28 24.93 11.02Q24.56 11.77 24.56 12.63L24.56 12.63L24.56 13.55Q24.56 14.72 24.97 15.54Q25.38 16.35 26.10 16.77Q26.83 17.19 27.80 17.19L27.80 17.19Q28.43 17.19 28.94 17.01Q29.44 16.83 29.82 16.47Q30.19 16.11 30.39 15.57L30.39 15.57L31.93 16.00Q31.68 16.79 31.11 17.38Q30.54 17.97 29.69 18.29Q28.85 18.62 27.80 18.62ZM41.05 14.17L41.05 14.17L41.05 8.04L42.64 8.04L42.64 18.41L41.05 18.41L41.05 16.65L40.94 16.65Q40.58 17.44 39.81 17.99Q39.04 18.54 37.87 18.54L37.87 18.54Q36.89 18.54 36.14 18.11Q35.38 17.68 34.95 16.82Q34.52 15.95 34.52 14.63L34.52 14.63L34.52 8.04L36.11 8.04L36.11 14.52Q36.11 15.65 36.75 16.33Q37.39 17.00 38.38 17.00L38.38 17.00Q38.97 17.00 39.59 16.70Q40.21 16.40 40.63 15.77Q41.05 15.14 41.05 14.17ZM49.47 18.62L49.47 18.62Q48.17 18.62 47.18 17.96Q46.19 17.31 45.63 16.10Q45.07 14.90 45.07 13.25L45.07 13.25Q45.07 11.62 45.63 10.42Q46.19 9.22 47.19 8.56Q48.19 7.91 49.50 7.91L49.50 7.91Q50.51 7.91 51.10 8.24Q51.69 8.58 52.00 9.00Q52.32 9.42 52.49 9.69L52.49 9.69L52.63 9.69L52.63 4.59L54.22 4.59L54.22 18.41L52.68 18.41L52.68 16.81L52.49 16.81Q52.32 17.10 51.99 17.53Q51.67 17.95 51.07 18.29Q50.47 18.62 49.47 18.62ZM49.69 17.19L49.69 17.19Q50.64 17.19 51.31 16.69Q51.97 16.19 52.31 15.29Q52.65 14.40 52.65 13.22L52.65 13.22Q52.65 12.06 52.32 11.19Q51.98 10.32 51.32 9.83Q50.66 9.34 49.69 9.34L49.69 9.34Q48.67 9.34 48.00 9.85Q47.33 10.37 47.00 11.25Q46.66 12.13 46.66 13.22L46.66 13.22Q46.66 14.33 47.00 15.23Q47.34 16.13 48.02 16.66Q48.69 17.19 49.69 17.19ZM61.56 18.62L61.56 18.62Q60.16 18.62 59.10 17.95Q58.05 17.29 57.46 16.09Q56.87 14.88 56.87 13.28L56.87 13.28Q56.87 11.66 57.46 10.45Q58.05 9.24 59.10 8.58Q60.16 7.91 61.56 7.91L61.56 7.91Q62.96 7.91 64.02 8.58Q65.08 9.24 65.67 10.45Q66.26 11.66 66.26 13.28L66.26 13.28Q66.26 14.88 65.67 16.09Q65.08 17.29 64.02 17.95Q62.96 18.62 61.56 18.62ZM61.56 17.19L61.56 17.19Q62.63 17.19 63.32 16.65Q64.00 16.10 64.33 15.21Q64.66 14.32 64.66 13.28L64.66 13.28Q64.66 12.24 64.33 11.34Q64.00 10.44 63.32 9.89Q62.63 9.34 61.56 9.34L61.56 9.34Q60.50 9.34 59.81 9.89Q59.12 10.44 58.79 11.34Q58.46 12.24 58.46 13.28L58.46 13.28Q58.46 14.32 58.79 15.21Q59.12 16.10 59.81 16.65Q60.50 17.19 61.56 17.19ZM68.58 11.74L74.62 11.74L74.62 13.22L68.58 13.22L68.58 11.74ZM82.64 18.41L77.65 18.41L77.65 4.59L82.48 4.59Q83.92 4.59 84.86 5.08Q85.80 5.58 86.26 6.41Q86.71 7.25 86.71 8.26L86.71 8.26Q86.71 9.15 86.40 9.73Q86.09 10.31 85.58 10.65Q85.07 10.98 84.47 11.15L84.47 11.15L84.47 11.28Q85.11 11.32 85.75 11.73Q86.39 12.13 86.82 12.89Q87.25 13.64 87.25 14.74L87.25 14.74Q87.25 15.77 86.78 16.60Q86.31 17.43 85.29 17.92Q84.27 18.41 82.64 18.41L82.64 18.41ZM79.32 12.12L79.32 16.92L82.64 16.92Q84.28 16.92 84.97 16.28Q85.66 15.65 85.66 14.74L85.66 14.74Q85.66 14.03 85.30 13.44Q84.95 12.84 84.29 12.48Q83.62 12.12 82.72 12.12L82.72 12.12L79.32 12.12ZM79.32 6.07L79.32 10.66L82.42 10.66Q83.18 10.66 83.79 10.36Q84.40 10.07 84.76 9.53Q85.12 8.99 85.12 8.26L85.12 8.26Q85.12 7.35 84.49 6.71Q83.85 6.07 82.48 6.07L82.48 6.07L79.32 6.07ZM94.00 18.62L94.00 18.62Q92.60 18.62 91.54 17.95Q90.49 17.29 89.90 16.09Q89.31 14.88 89.31 13.28L89.31 13.28Q89.31 11.66 89.90 10.45Q90.49 9.24 91.54 8.58Q92.60 7.91 94.00 7.91L94.00 7.91Q95.40 7.91 96.46 8.58Q97.52 9.24 98.11 10.45Q98.70 11.66 98.70 13.28L98.70 13.28Q98.70 14.88 98.11 16.09Q97.52 17.29 96.46 17.95Q95.40 18.62 94.00 18.62ZM94.00 17.19L94.00 17.19Q95.07 17.19 95.76 16.65Q96.44 16.10 96.77 15.21Q97.11 14.32 97.11 13.28L97.11 13.28Q97.11 12.24 96.77 11.34Q96.44 10.44 95.76 9.89Q95.07 9.34 94.00 9.34L94.00 9.34Q92.94 9.34 92.25 9.89Q91.56 10.44 91.23 11.34Q90.90 12.24 90.90 13.28L90.90 13.28Q90.90 14.32 91.23 15.21Q91.56 16.10 92.25 16.65Q92.94 17.19 94.00 17.19ZM105.34 18.62L105.34 18.62Q103.93 18.62 102.88 17.95Q101.82 17.29 101.23 16.09Q100.64 14.88 100.64 13.28L100.64 13.28Q100.64 11.66 101.23 10.45Q101.82 9.24 102.88 8.58Q103.93 7.91 105.34 7.91L105.34 7.91Q106.74 7.91 107.80 8.58Q108.85 9.24 109.44 10.45Q110.03 11.66 110.03 13.28L110.03 13.28Q110.03 14.88 109.44 16.09Q108.85 17.29 107.80 17.95Q106.74 18.62 105.34 18.62ZM105.34 17.19L105.34 17.19Q106.40 17.19 107.09 16.65Q107.78 16.10 108.11 15.21Q108.44 14.32 108.44 13.28L108.44 13.28Q108.44 12.24 108.11 11.34Q107.78 10.44 107.09 9.89Q106.40 9.34 105.34 9.34L105.34 9.34Q104.27 9.34 103.58 9.89Q102.89 10.44 102.56 11.34Q102.23 12.24 102.23 13.28L102.23 13.28Q102.23 14.32 102.56 15.21Q102.89 16.10 103.58 16.65Q104.27 17.19 105.34 17.19ZM112.46 4.59L114.05 4.59L114.05 18.41L112.46 18.41L112.46 4.59ZM121.31 18.62L121.31 18.62Q119.82 18.62 118.73 17.96Q117.65 17.29 117.07 16.10Q116.48 14.90 116.48 13.31L116.48 13.31Q116.48 11.71 117.07 10.50Q117.65 9.28 118.70 8.59Q119.75 7.91 121.15 7.91L121.15 7.91Q121.96 7.91 122.75 8.18Q123.54 8.45 124.19 9.05Q124.84 9.66 125.22 10.65Q125.61 11.64 125.61 13.09L125.61 13.09L125.61 13.76L117.62 13.76L117.62 12.39L123.99 12.39Q123.99 11.51 123.64 10.82Q123.29 10.13 122.65 9.74Q122.02 9.34 121.15 9.34L121.15 9.34Q120.20 9.34 119.51 9.81Q118.82 10.28 118.45 11.02Q118.08 11.77 118.08 12.63L118.08 12.63L118.08 13.55Q118.08 14.72 118.48 15.54Q118.89 16.35 119.62 16.77Q120.35 17.19 121.31 17.19L121.31 17.19Q121.94 17.19 122.45 17.01Q122.96 16.83 123.33 16.47Q123.70 16.11 123.90 15.57L123.90 15.57L125.44 16.00Q125.20 16.79 124.63 17.38Q124.05 17.97 123.21 18.29Q122.37 18.62 121.31 18.62ZM131.08 18.65L131.08 18.65Q130.10 18.65 129.30 18.27Q128.49 17.90 128.02 17.19Q127.55 16.48 127.55 15.46L127.55 15.46Q127.55 14.57 127.90 14.02Q128.25 13.46 128.84 13.14Q129.42 12.83 130.14 12.67Q130.85 12.51 131.57 12.41L131.57 12.41Q132.51 12.29 133.10 12.23Q133.69 12.17 133.97 12.01Q134.24 11.85 134.24 11.47L134.24 11.47L134.24 11.42Q134.24 10.42 133.70 9.86Q133.16 9.31 132.06 9.31L132.06 9.31Q130.92 9.31 130.27 9.81Q129.62 10.31 129.36 10.88L129.36 10.88L127.85 10.34Q128.25 9.39 128.93 8.86Q129.61 8.33 130.41 8.12Q131.22 7.91 132.00 7.91L132.00 7.91Q132.50 7.91 133.15 8.03Q133.80 8.14 134.41 8.51Q135.02 8.87 135.43 9.61Q135.83 10.34 135.83 11.58L135.83 11.58L135.83 18.41L134.24 18.41L134.24 17.00L134.16 17.00Q134.00 17.34 133.62 17.72Q133.24 18.11 132.62 18.38Q131.99 18.65 131.08 18.65ZM131.33 17.22L131.33 17.22Q132.27 17.22 132.92 16.85Q133.57 16.48 133.91 15.89Q134.24 15.30 134.24 14.65L134.24 14.65L134.24 13.20Q134.14 13.32 133.80 13.42Q133.46 13.51 133.02 13.59Q132.57 13.66 132.16 13.71Q131.75 13.76 131.49 13.79L131.49 13.79Q130.87 13.87 130.33 14.05Q129.80 14.23 129.47 14.58Q129.14 14.94 129.14 15.55L129.14 15.55Q129.14 16.38 129.76 16.80Q130.38 17.22 131.33 17.22ZM140.34 12.17L140.34 12.17L140.34 18.41L138.75 18.41L138.75 8.04L140.29 8.04L140.29 9.66L140.42 9.66Q140.79 8.87 141.53 8.39Q142.27 7.91 143.44 7.91L143.44 7.91Q144.50 7.91 145.29 8.34Q146.08 8.76 146.51 9.63Q146.95 10.50 146.95 11.82L146.95 11.82L146.95 18.41L145.36 18.41L145.36 11.93Q145.36 10.71 144.73 10.02Q144.09 9.34 142.99 9.34L142.99 9.34Q142.22 9.34 141.63 9.67Q141.03 10.00 140.69 10.63Q140.34 11.27 140.34 12.17ZM164.60 8.04L162.98 8.04Q162.86 7.02 162.00 6.45Q161.14 5.88 159.88 5.88L159.88 5.88Q158.96 5.88 158.28 6.18Q157.59 6.48 157.21 7.00Q156.83 7.52 156.83 8.18L156.83 8.18Q156.83 8.73 157.10 9.13Q157.36 9.52 157.78 9.78Q158.20 10.04 158.66 10.21Q159.12 10.37 159.50 10.47L159.50 10.47L160.91 10.85Q161.45 10.99 162.11 11.24Q162.78 11.49 163.39 11.92Q164.00 12.35 164.39 13.02Q164.79 13.68 164.79 14.65L164.79 14.65Q164.79 15.77 164.21 16.68Q163.63 17.58 162.51 18.12Q161.39 18.65 159.80 18.65L159.80 18.65Q158.32 18.65 157.23 18.17Q156.15 17.69 155.53 16.83Q154.91 15.98 154.83 14.84L154.83 14.84L156.56 14.84Q156.63 15.63 157.09 16.14Q157.55 16.65 158.26 16.89Q158.98 17.14 159.80 17.14L159.80 17.14Q160.76 17.14 161.52 16.82Q162.28 16.51 162.73 15.95Q163.17 15.38 163.17 14.63L163.17 14.63Q163.17 13.94 162.79 13.51Q162.40 13.08 161.78 12.81Q161.15 12.54 160.42 12.33L160.42 12.33L158.72 11.85Q157.10 11.38 156.16 10.52Q155.21 9.66 155.21 8.26L155.21 8.26Q155.21 7.10 155.84 6.23Q156.47 5.36 157.54 4.88Q158.61 4.40 159.93 4.40L159.93 4.40Q161.27 4.40 162.31 4.87Q163.35 5.35 163.96 6.17Q164.57 7.00 164.60 8.04L164.60 8.04ZM168.92 22.29L167.33 22.29L167.33 8.04L168.87 8.04L168.87 9.69L169.06 9.69Q169.23 9.42 169.55 9.00Q169.86 8.58 170.45 8.24Q171.04 7.91 172.05 7.91L172.05 7.91Q173.36 7.91 174.36 8.56Q175.36 9.22 175.92 10.42Q176.48 11.62 176.48 13.25L176.48 13.25Q176.48 14.90 175.92 16.10Q175.36 17.31 174.37 17.96Q173.38 18.62 172.08 18.62L172.08 18.62Q171.08 18.62 170.48 18.29Q169.88 17.95 169.56 17.53Q169.23 17.10 169.06 16.81L169.06 16.81L168.92 16.81L168.92 22.29ZM168.89 13.22L168.89 13.22Q168.89 14.40 169.24 15.29Q169.58 16.19 170.24 16.69Q170.91 17.19 171.86 17.19L171.86 17.19Q172.86 17.19 173.53 16.66Q174.20 16.13 174.55 15.23Q174.89 14.33 174.89 13.22L174.89 13.22Q174.89 12.13 174.55 11.25Q174.22 10.37 173.55 9.85Q172.88 9.34 171.86 9.34L171.86 9.34Q170.89 9.34 170.23 9.83Q169.57 10.32 169.23 11.19Q168.89 12.06 168.89 13.22ZM180.50 18.41L178.91 18.41L178.91 8.04L180.45 8.04L180.45 9.61L180.55 9.61Q180.84 8.84 181.58 8.36Q182.32 7.88 183.25 7.88L183.25 7.88Q183.43 7.88 183.69 7.89Q183.95 7.89 184.09 7.91L184.09 7.91L184.09 9.53Q184.01 9.51 183.72 9.46Q183.44 9.42 183.12 9.42L183.12 9.42Q182.36 9.42 181.77 9.73Q181.18 10.05 180.84 10.60Q180.50 11.15 180.50 11.85L180.50 11.85L180.50 18.41ZM190 18.62L190 18.62Q188.50 18.62 187.42 17.96Q186.34 17.29 185.75 16.10Q185.17 14.90 185.17 13.31L185.17 13.31Q185.17 11.71 185.75 10.50Q186.34 9.28 187.39 8.59Q188.43 7.91 189.84 7.91L189.84 7.91Q190.65 7.91 191.44 8.18Q192.23 8.45 192.87 9.05Q193.52 9.66 193.91 10.65Q194.29 11.64 194.29 13.09L194.29 13.09L194.29 13.76L186.30 13.76L186.30 12.39L192.67 12.39Q192.67 11.51 192.32 10.82Q191.98 10.13 191.34 9.74Q190.70 9.34 189.84 9.34L189.84 9.34Q188.89 9.34 188.20 9.81Q187.50 10.28 187.13 11.02Q186.76 11.77 186.76 12.63L186.76 12.63L186.76 13.55Q186.76 14.72 187.17 15.54Q187.58 16.35 188.31 16.77Q189.04 17.19 190 17.19L190 17.19Q190.63 17.19 191.14 17.01Q191.65 16.83 192.02 16.47Q192.39 16.11 192.59 15.57L192.59 15.57L194.13 16.00Q193.89 16.79 193.31 17.38Q192.74 17.97 191.90 18.29Q191.05 18.62 190 18.62ZM199.77 18.65L199.77 18.65Q198.78 18.65 197.98 18.27Q197.18 17.90 196.71 17.19Q196.23 16.48 196.23 15.46L196.23 15.46Q196.23 14.57 196.59 14.02Q196.94 13.46 197.52 13.14Q198.11 12.83 198.82 12.67Q199.53 12.51 200.26 12.41L200.26 12.41Q201.20 12.29 201.79 12.23Q202.38 12.17 202.65 12.01Q202.93 11.85 202.93 11.47L202.93 11.47L202.93 11.42Q202.93 10.42 202.38 9.86Q201.84 9.31 200.74 9.31L200.74 9.31Q199.60 9.31 198.95 9.81Q198.31 10.31 198.04 10.88L198.04 10.88L196.53 10.34Q196.94 9.39 197.61 8.86Q198.29 8.33 199.10 8.12Q199.90 7.91 200.69 7.91L200.69 7.91Q201.19 7.91 201.84 8.03Q202.49 8.14 203.10 8.51Q203.71 8.87 204.12 9.61Q204.52 10.34 204.52 11.58L204.52 11.58L204.52 18.41L202.93 18.41L202.93 17.00L202.85 17.00Q202.68 17.34 202.31 17.72Q201.93 18.11 201.30 18.38Q200.67 18.65 199.77 18.65ZM200.01 17.22L200.01 17.22Q200.96 17.22 201.61 16.85Q202.26 16.48 202.59 15.89Q202.93 15.30 202.93 14.65L202.93 14.65L202.93 13.20Q202.83 13.32 202.49 13.42Q202.14 13.51 201.70 13.59Q201.26 13.66 200.85 13.71Q200.43 13.76 200.17 13.79L200.17 13.79Q199.55 13.87 199.02 14.05Q198.48 14.23 198.15 14.58Q197.83 14.94 197.83 15.55L197.83 15.55Q197.83 16.38 198.44 16.80Q199.06 17.22 200.01 17.22ZM211.35 18.62L211.35 18.62Q210.05 18.62 209.06 17.96Q208.07 17.31 207.51 16.10Q206.95 14.90 206.95 13.25L206.95 13.25Q206.95 11.62 207.51 10.42Q208.07 9.22 209.07 8.56Q210.07 7.91 211.38 7.91L211.38 7.91Q212.39 7.91 212.98 8.24Q213.57 8.58 213.88 9.00Q214.20 9.42 214.37 9.69L214.37 9.69L214.51 9.69L214.51 4.59L216.10 4.59L216.10 18.41L214.56 18.41L214.56 16.81L214.37 16.81Q214.20 17.10 213.87 17.53Q213.55 17.95 212.95 18.29Q212.35 18.62 211.35 18.62ZM211.56 17.19L211.56 17.19Q212.52 17.19 213.18 16.69Q213.84 16.19 214.19 15.29Q214.53 14.40 214.53 13.22L214.53 13.22Q214.53 12.06 214.20 11.19Q213.86 10.32 213.20 9.83Q212.54 9.34 211.56 9.34L211.56 9.34Q210.55 9.34 209.88 9.85Q209.21 10.37 208.88 11.25Q208.54 12.13 208.54 13.22L208.54 13.22Q208.54 14.33 208.88 15.23Q209.22 16.13 209.89 16.66Q210.57 17.19 211.56 17.19Z" transform="translate(0, 0)"></path></g></svg> <svg y="286.4250042724609" viewBox="2.5199999809265137 22.440000534057617 297.1200256347656 43.31999969482422" x="138.93999084472657" height="43.31999969482422" width="297.1200256347656" style="overflow: visible;"><g fill="#545454" fill-opacity="1" style=""><path d="M17.58 47.76L12.96 47.76L12.96 58.56Q12.96 60.84 13.44 61.86Q13.92 62.88 15.12 63.24Q16.32 63.60 19.02 63.72L19.02 63.72L19.02 64.92Q15.90 64.74 10.20 64.74L10.20 64.74Q5.04 64.74 2.52 64.92L2.52 64.92L2.52 63.72Q4.68 63.60 5.67 63.24Q6.66 62.88 7.02 61.86Q7.38 60.84 7.38 58.56L7.38 58.56L7.38 28.80Q7.38 26.52 7.02 25.50Q6.66 24.48 5.67 24.12Q4.68 23.76 2.52 23.64L2.52 23.64L2.52 22.44Q5.04 22.62 9.84 22.62L9.84 22.62L16.32 22.56Q17.46 22.50 18.90 22.50L18.90 22.50Q25.92 22.50 29.64 25.71Q33.36 28.92 33.36 34.32L33.36 34.32Q33.36 37.62 31.89 40.65Q30.42 43.68 26.91 45.72Q23.40 47.76 17.58 47.76L17.58 47.76ZM17.40 23.64Q15.54 23.64 14.61 24.06Q13.68 24.48 13.32 25.56Q12.96 26.64 12.96 28.80L12.96 28.80L12.96 46.56L16.98 46.56Q22.86 46.56 25.11 43.41Q27.36 40.26 27.36 34.98L27.36 34.98Q27.36 29.16 25.05 26.40Q22.74 23.64 17.40 23.64L17.40 23.64ZM51.12 28.44L51.12 29.64Q48.96 29.76 47.97 30.12Q46.98 30.48 46.62 31.50Q46.26 32.52 46.26 34.80L46.26 34.80L46.26 58.56Q46.26 60.84 46.62 61.86Q46.98 62.88 47.97 63.24Q48.96 63.60 51.12 63.72L51.12 63.72L51.12 64.92Q48.36 64.74 43.50 64.74L43.50 64.74Q38.34 64.74 35.82 64.92L35.82 64.92L35.82 63.72Q37.98 63.60 38.97 63.24Q39.96 62.88 40.32 61.86Q40.68 60.84 40.68 58.56L40.68 58.56L40.68 34.80Q40.68 32.52 40.32 31.50Q39.96 30.48 38.97 30.12Q37.98 29.76 35.82 29.64L35.82 29.64L35.82 28.44Q38.34 28.62 43.50 28.62L43.50 28.62Q48.30 28.62 51.12 28.44L51.12 28.44ZM90.84 28.44L90.84 29.64Q88.74 29.76 87.72 30.27Q86.70 30.78 86.34 31.95Q85.98 33.12 85.98 35.40L85.98 35.40L85.98 65.22L84.60 65.22L60.60 31.98L60.60 57.96Q60.60 60.30 60.99 61.44Q61.38 62.58 62.52 63.09Q63.66 63.60 66.06 63.72L66.06 63.72L66.06 64.92Q63.90 64.74 59.94 64.74L59.94 64.74Q56.34 64.74 54.36 64.92L54.36 64.92L54.36 63.72Q56.46 63.60 57.48 63.09Q58.50 62.58 58.86 61.41Q59.22 60.24 59.22 57.96L59.22 57.96L59.22 34.80Q59.22 32.52 58.86 31.50Q58.50 30.48 57.51 30.12Q56.52 29.76 54.36 29.64L54.36 29.64L54.36 28.44Q56.34 28.62 59.94 28.62L59.94 28.62Q63.18 28.62 65.46 28.44L65.46 28.44L84.60 55.08L84.60 35.40Q84.60 33.06 84.21 31.92Q83.82 30.78 82.68 30.27Q81.54 29.76 79.14 29.64L79.14 29.64L79.14 28.44Q81.30 28.62 85.26 28.62L85.26 28.62Q88.86 28.62 90.84 28.44L90.84 28.44ZM109.68 28.44Q119.04 28.44 123.75 32.97Q128.46 37.50 128.46 46.20L128.46 46.20Q128.46 51.84 126.18 56.07Q123.90 60.30 119.55 62.61Q115.20 64.92 109.14 64.92L109.14 64.92L105.66 64.86Q102.30 64.74 100.74 64.74L100.74 64.74Q95.82 64.74 93.30 64.92L93.30 64.92L93.30 63.72Q95.46 63.60 96.45 63.24Q97.44 62.88 97.80 61.86Q98.16 60.84 98.16 58.56L98.16 58.56L98.16 34.80Q98.16 32.52 97.80 31.50Q97.44 30.48 96.45 30.12Q95.46 29.76 93.30 29.64L93.30 29.64L93.30 28.44Q95.40 28.62 99.12 28.62L99.12 28.62L104.22 28.56Q108.30 28.44 109.68 28.44L109.68 28.44ZM108.18 29.52Q106.32 29.52 105.39 29.94Q104.46 30.36 104.10 31.44Q103.74 32.52 103.74 34.68L103.74 34.68L103.74 58.68Q103.74 60.84 104.10 61.92Q104.46 63 105.39 63.42Q106.32 63.84 108.24 63.84L108.24 63.84Q113.70 63.84 116.82 61.89Q119.94 59.94 121.20 56.16Q122.46 52.38 122.46 46.44L122.46 46.44Q122.46 37.68 119.22 33.60Q115.98 29.52 108.18 29.52L108.18 29.52ZM160.68 59.88Q162.30 63.60 164.82 63.72L164.82 63.72L164.82 64.92Q162.42 64.74 158.40 64.74L158.40 64.74Q153.24 64.74 150.72 64.92L150.72 64.92L150.72 63.72Q152.94 63.60 153.99 63.12Q155.04 62.64 155.04 61.50L155.04 61.50Q155.04 60.54 154.20 58.68L154.20 58.68L151.14 51.84L136.56 51.84L134.52 56.34Q133.50 58.68 133.50 60.18L133.50 60.18Q133.50 61.74 134.61 62.61Q135.72 63.48 138.18 63.72L138.18 63.72L138.18 64.92Q136.38 64.74 132.72 64.74L132.72 64.74Q129.06 64.74 127.50 64.92L127.50 64.92L127.50 63.72Q129.12 63.30 130.26 61.89Q131.40 60.48 132.42 58.14L132.42 58.14L145.68 28.14L146.64 28.14L160.68 59.88ZM137.04 50.64L150.66 50.64L143.88 35.40L137.04 50.64ZM196.80 60.06Q198.90 62.70 201.48 63.72L201.48 63.72L201.48 64.92Q198.60 64.74 194.76 64.74L194.76 64.74Q190.68 64.74 187.14 64.92L187.14 64.92L187.14 63.72Q189.06 63.66 189.90 63.39Q190.74 63.12 190.74 62.58L190.74 62.58Q190.74 61.98 189.96 61.02L189.96 61.02L181.98 49.92Q180.78 48.24 179.46 47.49Q178.14 46.74 175.80 46.68L175.80 46.68L175.80 58.56Q175.80 60.84 176.16 61.86Q176.52 62.88 177.51 63.24Q178.50 63.60 180.66 63.72L180.66 63.72L180.66 64.92Q177.90 64.74 173.04 64.74L173.04 64.74Q167.88 64.74 165.36 64.92L165.36 64.92L165.36 63.72Q167.52 63.60 168.51 63.24Q169.50 62.88 169.86 61.86Q170.22 60.84 170.22 58.56L170.22 58.56L170.22 34.80Q170.22 32.52 169.86 31.50Q169.50 30.48 168.51 30.12Q167.52 29.76 165.36 29.64L165.36 29.64L165.36 28.44Q167.88 28.62 173.04 28.62L173.04 28.62Q177.84 28.62 180.66 28.44L180.66 28.44L180.66 29.64Q178.50 29.76 177.51 30.12Q176.52 30.48 176.16 31.50Q175.80 32.52 175.80 34.80L175.80 34.80L175.80 45.66Q177.90 45.54 179.76 44.67Q181.62 43.80 183.84 41.64L183.84 41.64L190.98 34.32Q192.54 32.88 192.54 31.62L192.54 31.62Q192.54 30.72 191.64 30.18Q190.74 29.64 189.00 29.58L189.00 29.58L189.00 28.44Q192.24 28.62 196.08 28.62L196.08 28.62Q198.66 28.62 200.34 28.44L200.34 28.44L200.34 29.58Q198.18 30 196.74 30.84Q195.30 31.68 193.02 33.90L193.02 33.90L183.60 43.32L196.80 60.06ZM233.28 59.88Q234.90 63.60 237.42 63.72L237.42 63.72L237.42 64.92Q235.02 64.74 231.00 64.74L231.00 64.74Q225.84 64.74 223.32 64.92L223.32 64.92L223.32 63.72Q225.54 63.60 226.59 63.12Q227.64 62.64 227.64 61.50L227.64 61.50Q227.64 60.54 226.80 58.68L226.80 58.68L223.74 51.84L209.16 51.84L207.12 56.34Q206.10 58.68 206.10 60.18L206.10 60.18Q206.10 61.74 207.21 62.61Q208.32 63.48 210.78 63.72L210.78 63.72L210.78 64.92Q208.98 64.74 205.32 64.74L205.32 64.74Q201.66 64.74 200.10 64.92L200.10 64.92L200.10 63.72Q201.72 63.30 202.86 61.89Q204.00 60.48 205.02 58.14L205.02 58.14L218.28 28.14L219.24 28.14L233.28 59.88ZM209.64 50.64L223.26 50.64L216.48 35.40L209.64 50.64ZM268.44 59.88Q270.06 63.60 272.58 63.72L272.58 63.72L272.58 64.92Q270.18 64.74 266.16 64.74L266.16 64.74Q261.00 64.74 258.48 64.92L258.48 64.92L258.48 63.72Q260.70 63.60 261.75 63.12Q262.80 62.64 262.80 61.50L262.80 61.50Q262.80 60.54 261.96 58.68L261.96 58.68L258.90 51.84L244.32 51.84L242.28 56.34Q241.26 58.68 241.26 60.18L241.26 60.18Q241.26 61.74 242.37 62.61Q243.48 63.48 245.94 63.72L245.94 63.72L245.94 64.92Q244.14 64.74 240.48 64.74L240.48 64.74Q236.82 64.74 235.26 64.92L235.26 64.92L235.26 63.72Q236.88 63.30 238.02 61.89Q239.16 60.48 240.18 58.14L240.18 58.14L253.44 28.14L254.40 28.14L268.44 59.88ZM244.80 50.64L258.42 50.64L251.64 35.40L244.80 50.64ZM285.96 27.60Q288.60 27.60 290.13 28.17Q291.66 28.74 293.28 29.82L293.28 29.82Q294.60 30.66 295.32 30.66L295.32 30.66Q295.86 30.66 296.16 30.03Q296.46 29.40 296.64 28.02L296.64 28.02L298.02 28.02Q297.72 31.14 297.72 39.06L297.72 39.06L296.34 39.06Q295.98 34.74 293.55 31.74Q291.12 28.74 286.50 28.74L286.50 28.74Q283.32 28.74 281.25 30.42Q279.18 32.10 279.18 34.68L279.18 34.68Q279.18 36.54 280.11 37.92Q281.04 39.30 282.51 40.29Q283.98 41.28 286.68 42.72L286.68 42.72L288.66 43.80Q292.38 45.78 294.63 47.34Q296.88 48.90 298.26 50.91Q299.64 52.92 299.64 55.56L299.64 55.56Q299.64 60.42 296.13 63.09Q292.62 65.76 287.34 65.76L287.34 65.76Q284.46 65.76 282.63 65.16Q280.80 64.56 279.12 63.54L279.12 63.54Q277.80 62.70 277.08 62.70L277.08 62.70Q276.54 62.70 276.24 63.33Q275.94 63.96 275.76 65.34L275.76 65.34L274.38 65.34Q274.62 62.40 274.62 52.14L274.62 52.14L276.00 52.14Q276.42 57.72 279.00 61.14Q281.58 64.56 286.92 64.56L286.92 64.56Q289.92 64.56 292.11 62.85Q294.30 61.14 294.30 57.78L294.30 57.78Q294.30 55.80 293.16 54.27Q292.02 52.74 290.10 51.54Q288.18 50.34 284.76 48.54L284.76 48.54Q279.84 46.02 277.26 43.50Q274.68 40.98 274.68 36.96L274.68 36.96Q274.68 32.52 277.95 30.06Q281.22 27.60 285.96 27.60L285.96 27.60Z" transform="translate(0, 0)"></path></g></svg></svg>